# Tiled2Unity generated file. Do not modify by hand.
# Wavefront file for 'Level_01_mesh_0003.obj'

# Vertices (Count = 292)
v -8.16 -8 0
v -8.32 -8 0
v -8.32 -7.84 0
v -8.16 -7.84 0
v -8.32 -8 0
v -8.48 -8 0
v -8.48 -7.84 0
v -8.32 -7.84 0
v -8.48 -8 0
v -8.639999 -8 0
v -8.639999 -7.84 0
v -8.48 -7.84 0
v -8.639999 -8 0
v -8.8 -8 0
v -8.8 -7.84 0
v -8.639999 -7.84 0
v -8.8 -8 0
v -8.96 -8 0
v -8.96 -7.84 0
v -8.8 -7.84 0
v -8.96 -8 0
v -9.12 -8 0
v -9.12 -7.84 0
v -8.96 -7.84 0
v -8.16 -8.16 0
v -8.32 -8.16 0
v -8.32 -8 0
v -8.16 -8 0
v -8.32 -8.16 0
v -8.48 -8.16 0
v -8.48 -8 0
v -8.32 -8 0
v -8.48 -8.16 0
v -8.639999 -8.16 0
v -8.639999 -8 0
v -8.48 -8 0
v -8.639999 -8.16 0
v -8.8 -8.16 0
v -8.8 -8 0
v -8.639999 -8 0
v -8.8 -8.16 0
v -8.96 -8.16 0
v -8.96 -8 0
v -8.8 -8 0
v -8 -8.48 0
v -8.16 -8.48 0
v -8.16 -8.32 0
v -8 -8.32 0
v -8.16 -8.48 0
v -8.32 -8.48 0
v -8.32 -8.32 0
v -8.16 -8.32 0
v -8.32 -8.48 0
v -8.48 -8.48 0
v -8.48 -8.32 0
v -8.32 -8.32 0
v -8.48 -8.48 0
v -8.639999 -8.48 0
v -8.639999 -8.32 0
v -8.48 -8.32 0
v -8 -8.639999 0
v -8.16 -8.639999 0
v -8.16 -8.48 0
v -8 -8.48 0
v -8.16 -8.639999 0
v -8.32 -8.639999 0
v -8.32 -8.48 0
v -8.16 -8.48 0
v -8.32 -8.639999 0
v -8.48 -8.639999 0
v -8.48 -8.48 0
v -8.32 -8.48 0
v -8.48 -8.639999 0
v -8.639999 -8.639999 0
v -8.639999 -8.48 0
v -8.48 -8.48 0
v -8 -8.8 0
v -8.16 -8.8 0
v -8.16 -8.639999 0
v -8 -8.639999 0
v -8.16 -8.8 0
v -8.32 -8.8 0
v -8.32 -8.639999 0
v -8.16 -8.639999 0
v -8.32 -8.8 0
v -8.48 -8.8 0
v -8.48 -8.639999 0
v -8.32 -8.639999 0
v -8.48 -8.8 0
v -8.639999 -8.8 0
v -8.639999 -8.639999 0
v -8.48 -8.639999 0
v -8.639999 -8.8 0
v -8.8 -8.8 0
v -8.8 -8.639999 0
v -8.639999 -8.639999 0
v -8.8 -8.8 0
v -8.96 -8.8 0
v -8.96 -8.639999 0
v -8.8 -8.639999 0
v -8.96 -8.8 0
v -9.12 -8.8 0
v -9.12 -8.639999 0
v -8.96 -8.639999 0
v -8.48 -8.96 0
v -8.639999 -8.96 0
v -8.639999 -8.8 0
v -8.48 -8.8 0
v -8.639999 -8.96 0
v -8.8 -8.96 0
v -8.8 -8.8 0
v -8.639999 -8.8 0
v -8.8 -8.96 0
v -8.96 -8.96 0
v -8.96 -8.8 0
v -8.8 -8.8 0
v -8.96 -8.96 0
v -9.12 -8.96 0
v -9.12 -8.8 0
v -8.96 -8.8 0
v -8.16 -9.28 0
v -8.32 -9.28 0
v -8.32 -9.12 0
v -8.16 -9.12 0
v -8.32 -9.28 0
v -8.48 -9.28 0
v -8.48 -9.12 0
v -8.32 -9.12 0
v -8.48 -9.28 0
v -8.639999 -9.28 0
v -8.639999 -9.12 0
v -8.48 -9.12 0
v -8.639999 -9.28 0
v -8.8 -9.28 0
v -8.8 -9.12 0
v -8.639999 -9.12 0
v -8.8 -9.28 0
v -8.96 -9.28 0
v -8.96 -9.12 0
v -8.8 -9.12 0
v -8.16 -9.44 0
v -8.32 -9.44 0
v -8.32 -9.28 0
v -8.16 -9.28 0
v -8.32 -9.44 0
v -8.48 -9.44 0
v -8.48 -9.28 0
v -8.32 -9.28 0
v -8.48 -9.44 0
v -8.639999 -9.44 0
v -8.639999 -9.28 0
v -8.48 -9.28 0
v -8.639999 -9.44 0
v -8.8 -9.44 0
v -8.8 -9.28 0
v -8.639999 -9.28 0
v -8.8 -9.44 0
v -8.96 -9.44 0
v -8.96 -9.28 0
v -8.8 -9.28 0
v -8 -9.76 0
v -8.16 -9.76 0
v -8.16 -9.599999 0
v -8 -9.599999 0
v -8.16 -9.76 0
v -8.32 -9.76 0
v -8.32 -9.599999 0
v -8.16 -9.599999 0
v -8.48 -9.76 0
v -8.639999 -9.76 0
v -8.639999 -9.599999 0
v -8.48 -9.599999 0
v -8.639999 -9.76 0
v -8.8 -9.76 0
v -8.8 -9.599999 0
v -8.639999 -9.599999 0
v -8.8 -9.76 0
v -8.96 -9.76 0
v -8.96 -9.599999 0
v -8.8 -9.599999 0
v -8.96 -9.76 0
v -9.12 -9.76 0
v -9.12 -9.599999 0
v -8.96 -9.599999 0
v -8 -9.92 0
v -8.16 -9.92 0
v -8.16 -9.76 0
v -8 -9.76 0
v -8.48 -9.92 0
v -8.639999 -9.92 0
v -8.639999 -9.76 0
v -8.48 -9.76 0
v -8.639999 -9.92 0
v -8.8 -9.92 0
v -8.8 -9.76 0
v -8.639999 -9.76 0
v -8.8 -9.92 0
v -8.96 -9.92 0
v -8.96 -9.76 0
v -8.8 -9.76 0
v -8.96 -9.92 0
v -9.12 -9.92 0
v -9.12 -9.76 0
v -8.96 -9.76 0
v -3.84 -10.08 0
v -4 -10.08 0
v -4 -9.92 0
v -3.84 -9.92 0
v -4 -10.08 0
v -4.16 -10.08 0
v -4.16 -9.92 0
v -4 -9.92 0
v -4.16 -10.08 0
v -4.32 -10.08 0
v -4.32 -9.92 0
v -4.16 -9.92 0
v -2.24 -10.24 0
v -2.4 -10.24 0
v -2.4 -10.08 0
v -2.24 -10.08 0
v -2.4 -10.24 0
v -2.56 -10.24 0
v -2.56 -10.08 0
v -2.4 -10.08 0
v -2.56 -10.24 0
v -2.72 -10.24 0
v -2.72 -10.08 0
v -2.56 -10.08 0
v -8 -10.24 0
v -8.16 -10.24 0
v -8.16 -10.08 0
v -8 -10.08 0
v -8.16 -10.24 0
v -8.32 -10.24 0
v -8.32 -10.08 0
v -8.16 -10.08 0
v -8.32 -10.24 0
v -8.48 -10.24 0
v -8.48 -10.08 0
v -8.32 -10.08 0
v -8.48 -10.24 0
v -8.639999 -10.24 0
v -8.639999 -10.08 0
v -8.48 -10.08 0
v -8.639999 -10.24 0
v -8.8 -10.24 0
v -8.8 -10.08 0
v -8.639999 -10.08 0
v -8.8 -10.24 0
v -8.96 -10.24 0
v -8.96 -10.08 0
v -8.8 -10.08 0
v -8.96 -10.24 0
v -9.12 -10.24 0
v -9.12 -10.08 0
v -8.96 -10.08 0
v -8 -10.4 0
v -8.16 -10.4 0
v -8.16 -10.24 0
v -8 -10.24 0
v -8.16 -10.4 0
v -8.32 -10.4 0
v -8.32 -10.24 0
v -8.16 -10.24 0
v -8.32 -10.4 0
v -8.48 -10.4 0
v -8.48 -10.24 0
v -8.32 -10.24 0
v -8.48 -10.4 0
v -8.639999 -10.4 0
v -8.639999 -10.24 0
v -8.48 -10.24 0
v -8.639999 -10.4 0
v -8.8 -10.4 0
v -8.8 -10.24 0
v -8.639999 -10.24 0
v -8.8 -10.4 0
v -8.96 -10.4 0
v -8.96 -10.24 0
v -8.8 -10.24 0
v -8.96 -10.4 0
v -9.12 -10.4 0
v -9.12 -10.24 0
v -8.96 -10.24 0
v -8.8 -10.56 0
v -8.96 -10.56 0
v -8.96 -10.4 0
v -8.8 -10.4 0
v -8.96 -10.56 0
v -9.12 -10.56 0
v -9.12 -10.4 0
v -8.96 -10.4 0

# Texture cooridinates (Count = 49)
vt 0.28 0.7826087
vt 0.32 0.7826087
vt 0.32 0.8260869
vt 0.28 0.8260869
vt 0.36 0.7826087
vt 0.36 0.8260869
vt 0.4 0.7826087
vt 0.4 0.8260869
vt 0.44 0.7826087
vt 0.44 0.8260869
vt 0.48 0.7826087
vt 0.48 0.8260869
vt 0.36 0.8695652
vt 0.4 0.8695652
vt 0.4 0.9130435
vt 0.36 0.9130435
vt 0.28 0.7391304
vt 0.32 0.7391304
vt 0.36 0.7391304
vt 0.4 0.7391304
vt 0.44 0.7391304
vt 0.48 0.7391304
vt 0.24 0.8695652
vt 0.28 0.8695652
vt 0.28 0.9130435
vt 0.24 0.9130435
vt 0.32 0.8695652
vt 0.32 0.9130435
vt 0.24 0.8260869
vt 0.24 0.7826087
vt 0.36 0.9565217
vt 0.4 0.9565217
vt 0.4 1
vt 0.36 1
vt 0.44 0.9565217
vt 0.44 1
vt 0.48 0.9565217
vt 0.48 1
vt 0.32 0.9565217
vt 0.44 0.9130435
vt 0.48 0.9130435
vt 0.32 1
vt 0.24 0.7391304
vt 0.68 0.6521739
vt 0.72 0.6521739
vt 0.72 0.6956522
vt 0.68 0.6956522
vt 0.44 0.8695652
vt 0.48 0.8695652

# Normal
vn 0 0 -1

# Mesh description
g Level_01_mesh_0003

# Faces
f 1/1/1 2/2/1 3/3/1 4/4/1
f 5/2/1 6/5/1 7/6/1 8/3/1
f 9/5/1 10/7/1 11/8/1 12/6/1
f 13/7/1 14/9/1 15/10/1 16/8/1
f 17/9/1 18/11/1 19/12/1 20/10/1
f 21/13/1 22/14/1 23/15/1 24/16/1
f 25/17/1 26/18/1 27/2/1 28/1/1
f 29/18/1 30/19/1 31/5/1 32/2/1
f 33/19/1 34/20/1 35/7/1 36/5/1
f 37/20/1 38/21/1 39/9/1 40/7/1
f 41/21/1 42/22/1 43/11/1 44/9/1
f 45/23/1 46/24/1 47/25/1 48/26/1
f 49/24/1 50/27/1 51/28/1 52/25/1
f 53/27/1 54/13/1 55/16/1 56/28/1
f 57/13/1 58/14/1 59/15/1 60/16/1
f 61/29/1 62/4/1 63/24/1 64/23/1
f 65/4/1 66/3/1 67/27/1 68/24/1
f 69/3/1 70/6/1 71/13/1 72/27/1
f 73/6/1 74/8/1 75/14/1 76/13/1
f 77/30/1 78/1/1 79/4/1 80/29/1
f 81/1/1 82/2/1 83/3/1 84/4/1
f 85/2/1 86/5/1 87/6/1 88/3/1
f 89/5/1 90/7/1 91/8/1 92/6/1
f 93/31/1 94/32/1 95/33/1 96/34/1
f 97/32/1 98/35/1 99/36/1 100/33/1
f 101/35/1 102/37/1 103/38/1 104/36/1
f 105/28/1 106/16/1 107/31/1 108/39/1
f 109/16/1 110/15/1 111/32/1 112/31/1
f 113/15/1 114/40/1 115/35/1 116/32/1
f 117/40/1 118/41/1 119/37/1 120/35/1
f 121/1/1 122/2/1 123/3/1 124/4/1
f 125/2/1 126/5/1 127/6/1 128/3/1
f 129/5/1 130/7/1 131/8/1 132/6/1
f 133/7/1 134/9/1 135/10/1 136/8/1
f 137/9/1 138/11/1 139/12/1 140/10/1
f 141/17/1 142/18/1 143/2/1 144/1/1
f 145/18/1 146/19/1 147/5/1 148/2/1
f 149/19/1 150/20/1 151/7/1 152/5/1
f 153/20/1 154/21/1 155/9/1 156/7/1
f 157/21/1 158/22/1 159/11/1 160/9/1
f 161/30/1 162/1/1 163/4/1 164/29/1
f 165/1/1 166/2/1 167/3/1 168/4/1
f 169/39/1 170/31/1 171/34/1 172/42/1
f 173/31/1 174/32/1 175/33/1 176/34/1
f 177/32/1 178/35/1 179/36/1 180/33/1
f 181/35/1 182/37/1 183/38/1 184/36/1
f 185/43/1 186/17/1 187/1/1 188/30/1
f 189/28/1 190/16/1 191/31/1 192/39/1
f 193/16/1 194/15/1 195/32/1 196/31/1
f 197/15/1 198/40/1 199/35/1 200/32/1
f 201/40/1 202/41/1 203/37/1 204/35/1
f 205/44/1 206/45/1 207/46/1 208/47/1
f 209/44/1 210/45/1 211/46/1 212/47/1
f 213/44/1 214/45/1 215/46/1 216/47/1
f 217/44/1 218/45/1 219/46/1 220/47/1
f 221/44/1 222/45/1 223/46/1 224/47/1
f 225/44/1 226/45/1 227/46/1 228/47/1
f 229/30/1 230/1/1 231/4/1 232/29/1
f 233/1/1 234/2/1 235/3/1 236/4/1
f 237/2/1 238/5/1 239/6/1 240/3/1
f 241/5/1 242/7/1 243/8/1 244/6/1
f 245/13/1 246/14/1 247/15/1 248/16/1
f 249/14/1 250/48/1 251/40/1 252/15/1
f 253/48/1 254/49/1 255/41/1 256/40/1
f 257/43/1 258/17/1 259/1/1 260/30/1
f 261/17/1 262/18/1 263/2/1 264/1/1
f 265/18/1 266/19/1 267/5/1 268/2/1
f 269/19/1 270/20/1 271/7/1 272/5/1
f 273/6/1 274/8/1 275/14/1 276/13/1
f 277/14/1 278/48/1 279/40/1 280/15/1
f 281/48/1 282/49/1 283/41/1 284/40/1
f 285/8/1 286/10/1 287/48/1 288/14/1
f 289/10/1 290/12/1 291/49/1 292/48/1

