# Tiled2Unity generated file. Do not modify by hand.
# Wavefront file for 'Level_01_mesh_0004.obj'

# Vertices (Count = 16)
v -2.56 -7.84 0
v -2.72 -7.84 0
v -2.72 -7.68 0
v -2.56 -7.68 0
v -2.72 -7.84 0
v -2.88 -7.84 0
v -2.88 -7.68 0
v -2.72 -7.68 0
v -7.52 -7.84 0
v -7.68 -7.84 0
v -7.68 -7.68 0
v -7.52 -7.68 0
v -8.96 -8 0
v -9.12 -8 0
v -9.12 -7.84 0
v -8.96 -7.84 0

# Texture cooridinates (Count = 10)
vt 0.4 0.5217391
vt 0.44 0.5217391
vt 0.44 0.5652174
vt 0.4 0.5652174
vt 0.48 0.5217391
vt 0.48 0.5652174
vt 0.36 0.8695652
vt 0.4 0.8695652
vt 0.4 0.9130435
vt 0.36 0.9130435

# Normal
vn 0 0 -1

# Mesh description
g Level_01_mesh_0004

# Faces
f 1/1/1 2/2/1 3/3/1 4/4/1
f 5/2/1 6/5/1 7/6/1 8/3/1
f 9/1/1 10/2/1 11/3/1 12/4/1
f 13/7/1 14/8/1 15/9/1 16/10/1

